<?xml version="1.0" encoding="UTF-8" standalone="no"?>
<!-- Created with Inkscape (http://www.inkscape.org/) -->

<svg
   xmlns:dc="http://purl.org/dc/elements/1.1/"
   xmlns:cc="http://creativecommons.org/ns#"
   xmlns:rdf="http://www.w3.org/1999/02/22-rdf-syntax-ns#"
   xmlns:svg="http://www.w3.org/2000/svg"
   xmlns="http://www.w3.org/2000/svg"
   xmlns:sodipodi="http://sodipodi.sourceforge.net/DTD/sodipodi-0.dtd"
   xmlns:inkscape="http://www.inkscape.org/namespaces/inkscape"
   width="48px"
   height="48px"
   id="svg4058"
   version="1.1"
   inkscape:version="0.48.3.1 r9886"
   sodipodi:docname="icon48.svg"
   inkscape:export-filename="/home/roberto/work/souzamonteiro/guash-1.6.0/icons/icon48.png"
   inkscape:export-xdpi="90"
   inkscape:export-ydpi="90">
  <defs
     id="defs4060" />
  <sodipodi:namedview
     id="base"
     pagecolor="#ffffff"
     bordercolor="#666666"
     borderopacity="1.0"
     inkscape:pageopacity="0.0"
     inkscape:pageshadow="2"
     inkscape:zoom="7"
     inkscape:cx="38.812501"
     inkscape:cy="24"
     inkscape:current-layer="layer1"
     showgrid="true"
     inkscape:grid-bbox="true"
     inkscape:document-units="px"
     inkscape:window-width="1110"
     inkscape:window-height="586"
     inkscape:window-x="2"
     inkscape:window-y="94"
     inkscape:window-maximized="0"
     showguides="true"
     inkscape:guide-bbox="true">
    <sodipodi:guide
       orientation="0,1"
       position="10.714286,44"
       id="guide4153" />
  </sodipodi:namedview>
  <metadata
     id="metadata4063">
    <rdf:RDF>
      <cc:Work
         rdf:about="">
        <dc:format>image/svg+xml</dc:format>
        <dc:type
           rdf:resource="http://purl.org/dc/dcmitype/StillImage" />
        <dc:title></dc:title>
      </cc:Work>
    </rdf:RDF>
  </metadata>
  <g
     id="layer1"
     inkscape:label="Layer 1"
     inkscape:groupmode="layer">
    <rect
       style="fill:#89a02c;fill-opacity:1;stroke:none"
       id="rect4066"
       width="48"
       height="48"
       x="0"
       y="0"
       ry="4" />
    <path
       style="fill:#ffffff;stroke:none"
       d="M 10.799292,5.0003233 C 9.8211233,5.0101833 8.8812313,5.2507931 8.0296333,5.7429877 4.6232454,7.7117677 3.9978369,12.9799 6.6200761,17.526601 c 0.9730392,1.687152 2.2545162,3.032162 3.6599039,3.960878 -0.3271727,0.799626 -0.5193097,1.631441 -0.5193097,2.500305 0,2.073785 0.3929357,4.125687 1.4796517,5.821455 1.086714,1.695769 2.867209,3.035403 5.642325,3.684652 0.152942,1.493467 0.933039,5.126421 2.373992,7.129582 C 20.697593,42.626633 22.799402,43 24.004624,43 c 1.205222,0 3.307032,-0.373367 4.747985,-2.376527 1.440953,-2.003161 2.22105,-5.636115 2.373992,-7.129582 2.775116,-0.649249 4.555609,-1.988883 5.642325,-3.684652 1.086714,-1.695768 1.479652,-3.74767 1.479652,-5.821455 0,-0.868864 -0.192137,-1.700679 -0.519311,-2.500305 1.400335,-0.928436 2.689853,-2.25415 3.659904,-3.936123 2.62224,-4.546701 1.972103,-9.8395883 -1.434286,-11.8083683 -3.40639,-1.9687784 -8.283288,0.1320868 -10.905527,4.6787883 -0.81945,1.420844 -1.335198,2.916081 -1.533204,4.356966 -1.126269,-0.191154 -2.296127,-0.297066 -3.51153,-0.297066 -1.224109,0 -2.402696,0.103253 -3.53626,0.297066 -0.195669,-1.448464 -0.709105,-2.952818 -1.533202,-4.381722 -1.96668,-3.4100263 -5.201367,-5.4263866 -8.13587,-5.3966967 z m 0.54404,2.6983486 c 1.946924,-0.063626 4.063787,1.1942296 5.316753,3.3667461 1.670621,2.896688 1.176431,6.326342 -1.112809,7.649446 -2.28924,1.323105 -5.500814,0.0498 -7.1714357,-2.846881 C 6.7052209,12.971294 7.1994103,9.541641 9.4886503,8.2185369 10.06096,7.8877611 10.694357,7.7198807 11.343332,7.6986719 z m 25.297855,0 c 0.648975,0.021209 1.282371,0.1890892 1.854681,0.519865 2.289241,1.3231041 2.78343,4.7527571 1.11281,7.6494461 -1.67062,2.896688 -4.882195,4.169986 -7.171436,2.846881 -2.28924,-1.323104 -2.783429,-4.752758 -1.112809,-7.649446 1.252966,-2.1725165 3.36983,-3.4303747 5.316754,-3.3667461 z M 18.514766,23.913517 c 0.288455,-2.92e-4 0.592177,0.04204 0.914977,0.09903 1.291201,0.227917 2.271636,0.844258 2.17616,1.386308 -0.0388,0.220208 -0.272943,0.382851 -0.593499,0.49511 -0.166702,-0.281673 -0.440573,-0.49511 -0.79133,-0.49511 -0.396508,0 -0.744928,0.250192 -0.890247,0.594132 -0.08321,-0.01093 -0.162391,-0.0097 -0.247291,-0.02476 -1.291201,-0.227917 -2.271635,-0.844258 -2.17616,-1.386308 0.07161,-0.406537 0.742031,-0.66752 1.60739,-0.668398 z m 10.707695,0 c 1.081473,-0.09653 1.968972,0.16935 2.052514,0.643643 0.09548,0.542049 -0.884958,1.15839 -2.176159,1.386307 -0.144824,0.02557 -0.28099,0.06058 -0.420395,0.07427 -0.139853,-0.355702 -0.485266,-0.618887 -0.890246,-0.618887 -0.322798,0 -0.593209,0.175802 -0.766603,0.420845 -0.232129,-0.109868 -0.413005,-0.263256 -0.445123,-0.4456 -0.09548,-0.542049 0.884959,-1.15839 2.17616,-1.386307 0.1614,-0.02849 0.315356,-0.06048 0.469852,-0.07427 z m -5.217837,16.709956 c 1.31112,0 2.373992,0.532003 2.373992,1.188263 0,0.277296 -0.19774,0.51805 -0.519311,0.717909 -0.111446,-0.405587 -0.449682,-0.693153 -0.890247,-0.693153 -0.528676,0 -0.964434,0.411467 -0.964434,0.940708 0,-0.529241 -0.435757,-0.940708 -0.964434,-0.940708 -0.449037,0 -0.786906,0.300374 -0.890247,0.717909 -0.316698,-0.202911 -0.519311,-0.466962 -0.519311,-0.742665 0,-0.65626 1.062872,-1.188263 2.373992,-1.188263 z"
       id="path3013"
       inkscape:connector-curvature="0"
       sodipodi:nodetypes="ssscsscssscsscssscscssssssssssssssssscscsssssscscssssscscscss" />
  </g>
</svg>
