<?xml version="1.0" encoding="UTF-8" standalone="no"?>
<!-- Created with Inkscape (http://www.inkscape.org/) -->

<svg
   xmlns:dc="http://purl.org/dc/elements/1.1/"
   xmlns:cc="http://creativecommons.org/ns#"
   xmlns:rdf="http://www.w3.org/1999/02/22-rdf-syntax-ns#"
   xmlns:svg="http://www.w3.org/2000/svg"
   xmlns="http://www.w3.org/2000/svg"
   xmlns:sodipodi="http://sodipodi.sourceforge.net/DTD/sodipodi-0.dtd"
   xmlns:inkscape="http://www.inkscape.org/namespaces/inkscape"
   width="48px"
   height="48px"
   id="svg2983"
   version="1.1"
   inkscape:version="0.48.3.1 r9886"
   sodipodi:docname="maned48.svg">
  <defs
     id="defs2985" />
  <sodipodi:namedview
     id="base"
     pagecolor="#ffffff"
     bordercolor="#666666"
     borderopacity="1.0"
     inkscape:pageopacity="0.0"
     inkscape:pageshadow="2"
     inkscape:zoom="10.333333"
     inkscape:cx="24"
     inkscape:cy="20.635404"
     inkscape:current-layer="layer1"
     showgrid="true"
     inkscape:grid-bbox="true"
     inkscape:document-units="px"
     showguides="true"
     inkscape:guide-bbox="true"
     guidetolerance="20"
     gridtolerance="10"
     inkscape:window-width="1280"
     inkscape:window-height="682"
     inkscape:window-x="0"
     inkscape:window-y="28"
     inkscape:window-maximized="0">
    <sodipodi:guide
       orientation="0,1"
       position="24.445692,24"
       id="guide2991" />
    <sodipodi:guide
       orientation="1,0"
       position="24,31.314729"
       id="guide2993" />
    <sodipodi:guide
       orientation="1,0"
       position="0,24.849753"
       id="guide2995" />
    <sodipodi:guide
       orientation="1,0"
       position="48,24.849753"
       id="guide2997" />
    <sodipodi:guide
       orientation="0,1"
       position="19.697975,48"
       id="guide2999" />
    <sodipodi:guide
       orientation="0,1"
       position="18.586807,0"
       id="guide3001" />
    <sodipodi:guide
       orientation="1,0"
       position="12,35.153309"
       id="guide3003" />
    <sodipodi:guide
       orientation="1,0"
       position="36,24.849753"
       id="guide3005" />
    <sodipodi:guide
       orientation="0,1"
       position="7.6771593,36"
       id="guide3007" />
    <sodipodi:guide
       orientation="0,1"
       position="6.6670068,12"
       id="guide3009" />
    <sodipodi:guide
       orientation="1,0"
       position="6,26.769042"
       id="guide3021" />
    <sodipodi:guide
       orientation="0,1"
       position="0,42"
       id="guide3023" />
    <sodipodi:guide
       orientation="1,0"
       position="30,38.890873"
       id="guide3025" />
    <sodipodi:guide
       orientation="1,0"
       position="42,36"
       id="guide3027" />
    <sodipodi:guide
       orientation="0,1"
       position="8.6873119,30"
       id="guide3029" />
    <sodipodi:guide
       orientation="0,1"
       position="0,18"
       id="guide3031" />
    <sodipodi:guide
       orientation="0,1"
       position="33.941126,6"
       id="guide3033" />
    <sodipodi:guide
       orientation="1,0"
       position="15,14.032258"
       id="guide3832" />
    <sodipodi:guide
       orientation="1,0"
       position="33,12"
       id="guide3834" />
    <sodipodi:guide
       orientation="0,1"
       position="20.806452,9"
       id="guide3836" />
    <sodipodi:guide
       orientation="0,1"
       position="36,3"
       id="guide3838" />
    <sodipodi:guide
       orientation="0,1"
       position="-3.6774194,45"
       id="guide3863" />
    <sodipodi:guide
       orientation="1,0"
       position="3,42"
       id="guide3865" />
    <sodipodi:guide
       orientation="1,0"
       position="45,21.290323"
       id="guide3867" />
    <sodipodi:guide
       orientation="1,0"
       position="21,18"
       id="guide3900" />
    <sodipodi:guide
       orientation="1,0"
       position="27,24"
       id="guide3902" />
    <sodipodi:guide
       orientation="0,1"
       position="21,27"
       id="guide3904" />
    <sodipodi:guide
       orientation="0,1"
       position="19.648199,21"
       id="guide3928" />
    <sodipodi:guide
       orientation="0,1"
       position="29.508325,1.5"
       id="guide4027" />
    <sodipodi:guide
       orientation="0,1"
       position="8.4193548,15"
       id="guide4043" />
  </sodipodi:namedview>
  <metadata
     id="metadata2988">
    <rdf:RDF>
      <cc:Work
         rdf:about="">
        <dc:format>image/svg+xml</dc:format>
        <dc:type
           rdf:resource="http://purl.org/dc/dcmitype/StillImage" />
        <dc:title></dc:title>
      </cc:Work>
    </rdf:RDF>
  </metadata>
  <g
     id="layer1"
     inkscape:label="Layer 1"
     inkscape:groupmode="layer">
    <path
       style="fill:#aa4400;stroke:none"
       d="m 7.3125,0.03125 c -1.2361052,0.01249332 -2.4238416,0.31617966 -3.5,0.9375 -4.30463359,2.4852814 -5.0949585,9.135489 -1.78125,14.875 1.2296235,2.12977 2.8490177,3.827638 4.625,5 C 6.2428031,21.853155 6,22.903194 6,24 6,26.617835 6.4965515,29.208046 7.8698272,31.348693 9.243103,33.48934 11.493103,35.180422 15,36 c 0.193272,1.885272 1.179076,6.471318 3,9 1.820924,2.528682 4.476968,3 6,3 1.523032,0 4.179076,-0.471318 6,-3 1.820924,-2.528682 2.806728,-7.114728 3,-9 3.506897,-0.819578 5.756897,-2.51066 7.130173,-4.651307 C 41.503448,29.208046 42,26.617835 42,24 42,22.903194 41.757197,21.853155 41.34375,20.84375 43.113345,19.671742 44.742902,17.998231 45.96875,15.875 49.282458,10.135489 48.460884,3.4540314 44.15625,0.96875 39.851616,-1.5165314 33.688708,1.1354885 30.375,6.875 29.339466,8.6685973 28.687719,10.556104 28.4375,12.375 27.01424,12.133698 25.535897,12 24,12 22.4531,12 20.963727,12.130339 19.53125,12.375 19.283984,10.546537 18.635158,8.6475217 17.59375,6.84375 15.108469,2.5391164 11.020815,-0.00622997 7.3125,0.03125 z M 8,3.4375 c 2.460317,-0.080321 5.135385,1.5075317 6.71875,4.25 2.111153,3.656624 1.486649,7.986034 -1.40625,9.65625 C 10.419601,19.013966 6.3611531,17.406624 4.25,13.75 2.1388469,10.093376 2.7633511,5.763966 5.65625,4.09375 6.3794747,3.676196 7.1798944,3.4642735 8,3.4375 z m 31.96875,0 c 0.820106,0.026774 1.620525,0.238696 2.34375,0.65625 2.892899,1.670216 3.517403,5.999626 1.40625,9.65625 -2.111153,3.656624 -6.169601,5.263966 -9.0625,3.59375 C 31.763351,15.673534 31.138847,11.344124 33.25,7.6875 34.833365,4.9450317 37.508433,3.3571794 39.96875,3.4375 z M 17.0625,23.90625 c 0.364517,-3.69e-4 0.748329,0.05307 1.15625,0.125 1.631683,0.28771 2.870652,1.065746 2.75,1.75 -0.04902,0.277978 -0.344916,0.48329 -0.75,0.625 -0.210662,-0.35557 -0.55675,-0.625 -1,-0.625 -0.501065,0 -0.941361,0.315829 -1.125,0.75 -0.105154,-0.01372 -0.205211,-0.01233 -0.3125,-0.03125 -1.631683,-0.28771 -2.870652,-1.065746 -2.75,-1.75 0.09049,-0.513191 0.937699,-0.842642 2.03125,-0.84375 z m 13.53125,0 c 1.366651,-0.121858 2.488179,0.213778 2.59375,0.8125 0.120652,0.684254 -1.118317,1.46229 -2.75,1.75 -0.183013,0.03227 -0.355085,0.07646 -0.53125,0.09375 -0.176732,-0.449021 -0.613229,-0.78125 -1.125,-0.78125 -0.407918,0 -0.749634,0.221922 -0.96875,0.53125 C 27.519159,26.173807 27.290587,25.980181 27.25,25.75 27.129348,25.065746 28.368317,24.28771 30,24 c 0.20396,-0.03596 0.398514,-0.07634 0.59375,-0.09375 z M 24,45 c 1.656854,0 3,0.671573 3,1.5 0,0.350043 -0.249884,0.653958 -0.65625,0.90625 -0.140833,-0.511992 -0.568261,-0.875 -1.125,-0.875 -0.668086,0 -1.21875,0.519414 -1.21875,1.1875 0,-0.668086 -0.550664,-1.1875 -1.21875,-1.1875 -0.567445,0 -0.994409,0.379175 -1.125,0.90625 C 21.25604,47.181355 21,46.848033 21,46.5 21,45.671573 22.343146,45 24,45 z"
       id="path3013"
       inkscape:connector-curvature="0"
       sodipodi:nodetypes="ssscsscssscsscssscscssssssssssssssssscscsssssscscssssscscscss" />
  </g>
</svg>
